<svg id="visual" viewBox="0 0 900 230" width="900" height="230" xmlns="http://www.w3.org/2000/svg" xmlns:xlink="http://www.w3.org/1999/xlink" version="1.1"><path d="M0 49L29 49L29 33L58 33L58 24L87 24L87 62L116 62L116 80L145 80L145 48L174 48L174 34L203 34L203 62L232 62L232 55L261 55L261 44L290 44L290 37L319 37L319 8L348 8L348 84L377 84L377 43L406 43L406 34L435 34L435 55L465 55L465 77L494 77L494 25L523 25L523 52L552 52L552 74L581 74L581 83L610 83L610 33L639 33L639 52L668 52L668 6L697 6L697 61L726 61L726 61L755 61L755 37L784 37L784 80L813 80L813 47L842 47L842 61L871 61L871 14L900 14" fill="none" stroke-linecap="square" stroke-linejoin="miter" stroke="#0066FF" stroke-width="4"></path></svg>
