<svg xmlns="http://www.w3.org/2000/svg" viewBox="0 0 500 500"><g id="freepik--Lines--inject-87"><path d="M244.88,55.51a.5.5,0,0,1-.5-.5V27.86a.51.51,0,0,1,.5-.5.5.5,0,0,1,.5.5V55A.5.5,0,0,1,244.88,55.51Z" style="fill:#263238"></path><path d="M321.2,72.39a.5.5,0,0,1-.4-.8l19.08-25.68a.5.5,0,0,1,.8.6L321.6,72.19A.51.51,0,0,1,321.2,72.39Z" style="fill:#263238"></path><path d="M392.38,149.44H363a.5.5,0,0,1-.5-.5.5.5,0,0,1,.5-.5h29.35a.5.5,0,0,1,.5.5A.5.5,0,0,1,392.38,149.44Z" style="fill:#263238"></path><path d="M170.77,72.39a.51.51,0,0,1-.4-.2L151.29,46.51a.5.5,0,1,1,.8-.6l19.08,25.68a.5.5,0,0,1-.4.8Z" style="fill:#263238"></path><path d="M128.94,149.44H99.59a.5.5,0,0,1-.5-.5.5.5,0,0,1,.5-.5h29.35a.5.5,0,0,1,.5.5A.5.5,0,0,1,128.94,149.44Z" style="fill:#263238"></path></g><g id="freepik--Floor--inject-87"><path d="M443,458.27H55.86a.5.5,0,0,1,0-1H443a.5.5,0,0,1,0,1Z" style="fill:#263238"></path></g><g id="freepik--Pieces--inject-87"><path d="M359.54,446.78l-17.71-1.22S310.08,457.77,306.41,459s31.76,6.72,31.76,6.72l18.93-6.11,20.15.61Z" style="fill:#CFD8DC"></path><path d="M338.17,466.21h-.08c-32.28-5-32.4-6.47-32.44-6.95,0-.15,0-.54.61-.73,3.61-1.21,35.08-13.31,35.39-13.43a.53.53,0,0,1,.22,0l17.7,1.22a.52.52,0,0,1,.27.1l17.71,13.43a.52.52,0,0,1,.17.57.49.49,0,0,1-.49.33l-20.06-.61-18.85,6.08Zm-31-6.94c3.4,1.34,20.25,4.26,31,5.93l18.81-6.07.17,0,18.59.57-16.34-12.4-17.45-1.21C339.67,446.92,312.47,457.38,307.13,459.27Z" style="fill:#263238"></path><path d="M326.12,442.85l13.24-2,7.51,2.34L361,436.62s-1.77,6.23-2.65,8.95a42.66,42.66,0,0,1-3.9,7.3l-10.23,2.82-10.16.39Z" style="fill:#CFD8DC"></path><path d="M326.12,442.85l13.24-2,7.51,2.34L361,436.62s-1.77,6.23-2.65,8.95a42.66,42.66,0,0,1-3.9,7.3l-10.23,2.82-10.16.39Z" style="fill:#fff;opacity:0.5"></path><path d="M334.06,456.58a.52.52,0,0,1-.43-.24l-7.94-13.24a.49.49,0,0,1,0-.47.54.54,0,0,1,.38-.28l13.25-1.94a.55.55,0,0,1,.22,0l7.32,2.28,14-6.53a.47.47,0,0,1,.53.07.51.51,0,0,1,.16.52c0,.06-1.78,6.26-2.66,9a41.22,41.22,0,0,1-4,7.41.46.46,0,0,1-.28.21l-10.23,2.82-.11,0-10.16.39Zm-7.13-13.35,7.41,12.34,9.8-.38,10-2.75a40.17,40.17,0,0,0,3.74-7c.65-2,1.8-6,2.34-7.88l-13.13,6.15a.5.5,0,0,1-.36,0l-7.4-2.3Z" style="fill:#263238"></path><path d="M350,448.67l-11.61.49-14.18-31.7.7,11c-23.44,9.5-57.69,13.49-86.94.14-.94-.43-1.86-.88-2.77-1.34,6.22,14.65,18.39,27.39,35.39,35.15,28.25,12.89,61.55,8.23,83.88-9.49Z" style="fill:#CFD8DC"></path><path d="M304.6,470.13a82.58,82.58,0,0,1-34.24-7.32c-16.48-7.52-29.13-20.09-35.64-35.4a.49.49,0,0,1,.11-.56.5.5,0,0,1,.57-.08c.91.46,1.82.9,2.76,1.33,29.74,13.57,64,8.91,86.21,0l-.67-10.59a.5.5,0,0,1,.37-.52.52.52,0,0,1,.58.29l14,31.38,11.27-.47a.57.57,0,0,1,.36.14l4.47,4.19a.55.55,0,0,1,.16.39.54.54,0,0,1-.19.37C340.78,464.36,322.76,470.13,304.6,470.13Zm-68.41-41.86c6.56,14.52,18.79,26.43,34.58,33.63,27,12.31,60.21,8.66,82.91-9.07l-3.89-3.65-11.4.48a.53.53,0,0,1-.48-.3l-13-29.16.52,8.18a.49.49,0,0,1-.31.49c-22.43,9.1-57.16,13.91-87.33.14C237.22,428.77,236.7,428.52,236.19,428.27Z" style="fill:#263238"></path><polyline points="324.89 428.41 323.18 432.4 313.02 437.35 312.76 443.34 315.63 455.33 312.5 457.93 302.34 463.14" style="fill:#CFD8DC"></polyline><path d="M302.34,463.64a.5.5,0,0,1-.23-.94l10.11-5.19,2.85-2.37-2.8-11.68a.66.66,0,0,1,0-.14l.26-6a.52.52,0,0,1,.28-.43l10-4.87,1.63-3.82a.51.51,0,0,1,.66-.26.49.49,0,0,1,.26.66l-1.71,4a.49.49,0,0,1-.24.25l-9.89,4.82-.25,5.62,2.85,11.92a.49.49,0,0,1-.16.5l-3.13,2.61-.09.06-10.16,5.21A.48.48,0,0,1,302.34,463.64Z" style="fill:#263238"></path><polyline points="315.63 455.33 313.28 461.06 318.23 463.14" style="fill:#CFD8DC"></polyline><path d="M318.23,463.64a.63.63,0,0,1-.19,0l-5-2.09a.51.51,0,0,1-.27-.65l2.34-5.73a.5.5,0,0,1,.93.38l-2.16,5.27,4.5,1.89a.5.5,0,0,1,.26.66A.49.49,0,0,1,318.23,463.64Z" style="fill:#263238"></path><path d="M232,446.78l-17.71-1.22S182.57,457.77,178.9,459s31.75,6.72,31.75,6.72l18.93-6.11,20.16.61Z" style="fill:#CFD8DC"></path><path d="M210.65,466.21h-.07c-32.28-5-32.4-6.47-32.44-6.95,0-.15,0-.54.6-.73,3.61-1.21,35.08-13.31,35.4-13.43a.51.51,0,0,1,.21,0l17.71,1.22a.52.52,0,0,1,.27.1L250,459.81a.52.52,0,0,1,.17.57.5.5,0,0,1-.49.33l-20.06-.61-18.85,6.08A.41.41,0,0,1,210.65,466.21Zm-31-6.94c3.41,1.34,20.25,4.26,31,5.93l18.82-6.07a.51.51,0,0,1,.17,0l18.59.57-16.35-12.4-17.45-1.21C212.16,446.92,185,457.38,179.61,459.27Z" style="fill:#263238"></path><path d="M280.27,455.94S274.16,457.77,262,459s-32.37.61-32.37.61,6.72,6.72,23.21,7.94S280.27,455.94,280.27,455.94Z" style="fill:#CFD8DC"></path><path d="M255,468.12c-.73,0-1.47,0-2.22-.08-16.48-1.22-23.24-7.8-23.52-8.08a.51.51,0,0,1-.1-.56.58.58,0,0,1,.47-.3c.2,0,20.26.6,32.3-.6s18.16-3,18.22-3a.5.5,0,0,1,.53.8C280.54,456.39,270.3,468.12,255,468.12Zm-23.95-8c2.49,1.84,9.34,6,21.81,6.9,13,1,22.57-7,25.84-10.17A130.53,130.53,0,0,1,262,459.49C251.79,460.51,235.88,460.25,231,460.14Z" style="fill:#263238"></path><path d="M142.44,464.55s6.1-1.83,18.32-3.05,32.36-.61,32.36-.61-6.72-6.72-23.2-7.94S142.44,464.55,142.44,464.55Z" style="fill:#CFD8DC"></path><path d="M142.44,465.05a.49.49,0,0,1-.38-.82c.11-.13,11.35-13,27.89-11.78s23.24,7.81,23.52,8.09a.49.49,0,0,1,.11.55.47.47,0,0,1-.48.3c-.2,0-20.25-.6-32.29.61s-18.17,3-18.23,3A.36.36,0,0,1,142.44,465.05Zm25.28-11.68c-11.88,0-20.61,7.28-23.69,10.26A128.33,128.33,0,0,1,160.71,461c10.2-1,26.11-.76,31-.65-2.48-1.84-9.34-6-21.8-6.9C169.15,453.4,168.43,453.37,167.72,453.37Z" style="fill:#263238"></path><path d="M136.42,457.88l-18.29,3.93s8.66,0,11.55,3.14,26.6,1.48,26.6,1.48Z" style="fill:#CFD8DC"></path><path d="M143.62,467.39c-6.27,0-12.77-.43-14.31-2.1-2.7-3-11.1-3-11.18-3a.51.51,0,0,1-.5-.45.49.49,0,0,1,.39-.54l18.3-3.93a.51.51,0,0,1,.3,0L156.48,466a.5.5,0,0,1,.29.54.51.51,0,0,1-.46.42C155.13,467,149.48,467.39,143.62,467.39Zm-21.89-5.85c2.82.34,6.54,1.14,8.32,3.07s14.73,2,24.12,1.46l-17.8-7.67Z" style="fill:#263238"></path><polygon points="201.09 451.47 212.95 445.51 221.27 437.56 228.18 445.19 238.22 454.65 238.28 459.83 217.61 457.63 201.09 451.47" style="fill:#CFD8DC"></polygon><polygon points="201.09 451.47 212.95 445.51 221.27 437.56 228.18 445.19 238.22 454.65 238.28 459.83 217.61 457.63 201.09 451.47" style="fill:#fff;opacity:0.5"></polygon><path d="M238.29,460.33h-.06l-20.68-2.19-.12,0-16.52-6.16a.51.51,0,0,1-.32-.44.52.52,0,0,1,.27-.48l11.8-5.92,8.26-7.9a.58.58,0,0,1,.37-.14.53.53,0,0,1,.35.17l6.91,7.62,10,9.43a.52.52,0,0,1,.16.36l.07,5.18a.52.52,0,0,1-.17.38A.51.51,0,0,1,238.29,460.33Zm-20.57-3.19,20.06,2.13-.06-4.4-9.88-9.32-6.6-7.27-7.94,7.6-.12.08-10.84,5.44Z" style="fill:#263238"></path><polygon points="238.28 459.83 216.05 454.35 197.81 444.02 185.78 446.86 169.33 450.13 188.39 463.92 205.65 467.66 226.68 464.83 238.28 459.83" style="fill:#CFD8DC"></polygon><path d="M205.65,468.16l-.1,0-17.27-3.73a.58.58,0,0,1-.18-.08L169,450.53a.5.5,0,0,1-.2-.51.52.52,0,0,1,.4-.38l16.44-3.27,12-2.83a.5.5,0,0,1,.36,0l18.18,10.29,22.16,5.46a.49.49,0,0,1,.38.45.5.5,0,0,1-.3.5l-11.6,5a.28.28,0,0,1-.13,0l-21,2.83Zm-17.05-4.71,17.07,3.7,20.88-2.81L236.72,460l-20.79-5.13-.12-.05-18.08-10.23-11.84,2.8-15.34,3Z" style="fill:#263238"></path></g><g id="freepik--light-bulb--inject-87"><polygon points="200.12 155.8 207.84 129.12 231.01 122.8 245.05 91.21 266.82 74.36 287.88 97.53 294.2 108.76 325.09 122.1 313.86 167.74 277.35 197.93 249.97 207.05 229.6 202.84 212.75 188.8 200.12 155.8" style="fill:#CFD8DC"></polygon><polygon points="200.12 155.8 207.84 129.12 231.01 122.8 245.05 91.21 266.82 74.36 287.88 97.53 294.2 108.76 325.09 122.1 313.86 167.74 277.35 197.93 249.97 207.05 229.6 202.84 212.75 188.8 200.12 155.8" style="fill:#fff;opacity:0.5"></polygon><path d="M250,207.55h-.11l-20.36-4.21a.51.51,0,0,1-.22-.11l-16.85-14a.48.48,0,0,1-.14-.2l-12.64-33a.5.5,0,0,1,0-.32L207.36,129a.48.48,0,0,1,.35-.34l22.94-6.26L244.59,91a.62.62,0,0,1,.15-.2L266.51,74a.51.51,0,0,1,.68.06l21.06,23.17a.47.47,0,0,1,.06.09l6.24,11.09,30.74,13.27a.5.5,0,0,1,.28.58l-11.23,45.64a.44.44,0,0,1-.17.26l-36.5,30.19a.65.65,0,0,1-.16.09l-27.39,9.13Zm-20.14-5.17,20.11,4.16,27.16-9.06,36.31-30,11.09-45.07L294,109.22a.49.49,0,0,1-.24-.21l-6.29-11.19L266.76,75l-21.3,16.49-14,31.48a.5.5,0,0,1-.33.27l-22.9,6.25-7.6,26.25,12.54,32.72Z" style="fill:#263238"></path><path d="M341.14,100.55l-7.83-1.85-5.45,11.91-9.09,12.19L304,127l-11.94,2.11-14,25.28-9.83,2.1-21.06,34.4-28.09-18.25L215.56,160l-11.23-11.93-14,.7-20.36,4.91L163.61,134l-21.22-6.89c0,1.06,0,2.12,0,3.19a105.5,105.5,0,0,0,12.59,50.33c13.86,25.37,38.49,52,33.9,83.67-.79,5.45-1.37,9.94,1.73,14.56l107.05,0c4.55-6.33,3.57-14.23,3.28-23.44-.53-17,4.43-33.62,12.88-48.15,7.1-12.2,17.39-23,23.3-35.76s8.29-27.19,8.29-41.19A106.68,106.68,0,0,0,341.14,100.55Z" style="fill:#CFD8DC"></path><path d="M297.61,279.43h0l-107,0a.49.49,0,0,1-.41-.22c-3.27-4.86-2.57-9.75-1.82-14.92,3.49-24-9.87-45-22.79-65.19-4-6.26-7.78-12.18-11-18.16a105.54,105.54,0,0,1-12.65-50.57c0-1.07,0-2.14,0-3.2a.5.5,0,0,1,.21-.39.47.47,0,0,1,.44-.07l21.22,6.88a.47.47,0,0,1,.32.32l6.18,19.22,19.91-4.81,14.13-.71a.49.49,0,0,1,.39.15l11.24,11.94a.72.72,0,0,1,.12.21l3.45,12.45L247,190.21l20.79-34a.5.5,0,0,1,.32-.23l9.61-2,13.93-25.08a.52.52,0,0,1,.35-.25l11.94-2.11,14.53-4.15,8.95-12,5.44-11.85a.48.48,0,0,1,.56-.28l7.84,1.84a.49.49,0,0,1,.36.35,107,107,0,0,1,4.24,30c0,15.3-2.89,29.62-8.34,41.4-3.44,7.44-8.44,14.31-13.26,21a175.92,175.92,0,0,0-10.06,14.85c-8.88,15.28-13.31,31.83-12.81,47.89,0,1.1.08,2.18.13,3.24.32,7.94.61,14.79-3.5,20.5A.52.52,0,0,1,297.61,279.43Zm-106.78-1,106.52,0c3.76-5.4,3.48-12,3.17-19.67,0-1.06-.09-2.15-.13-3.25-.51-16.24,4-33,12.95-48.42a179.51,179.51,0,0,1,10.11-14.94c4.8-6.6,9.76-13.43,13.16-20.78,5.4-11.65,8.25-25.82,8.25-41A106,106,0,0,0,340.74,101l-7.15-1.69-5.28,11.54a.41.41,0,0,1-.05.09l-9.09,12.19a.48.48,0,0,1-.26.18l-14.75,4.22-11.75,2.07-13.92,25.07a.54.54,0,0,1-.34.25L268.53,157l-20.95,34.22a.5.5,0,0,1-.31.22.49.49,0,0,1-.39-.07L218.8,173.07a.51.51,0,0,1-.21-.29l-3.48-12.51-11-11.68-13.81.69L170,154.18a.5.5,0,0,1-.59-.33l-6.24-19.42-20.34-6.59c0,.83,0,1.66,0,2.5a104.5,104.5,0,0,0,12.53,50.09c3.25,5.95,7,11.85,11,18.11,13,20.37,26.48,41.44,22.94,65.87C188.58,269.51,187.94,273.93,190.83,278.4Z" style="fill:#263238"></path><path d="M177,183h-.09a.5.5,0,0,1-.4-.58l1.4-7.72L181.29,163l-11.67-8.92a.5.5,0,1,1,.61-.79l11.94,9.12a.51.51,0,0,1,.17.54l-3.51,11.94-1.39,7.67A.49.49,0,0,1,177,183Z" style="fill:#263238"></path><path d="M196.94,210.39a.5.5,0,0,1-.45-.27l-9.49-19a.49.49,0,0,1,0-.41l4.09-10.44a.5.5,0,1,1,.93.36l-4,10.24,9.39,18.78a.49.49,0,0,1-.22.67A.44.44,0,0,1,196.94,210.39Z" style="fill:#263238"></path><path d="M187,179a.51.51,0,0,1-.2,0l-8.65-3.74a.5.5,0,1,1,.4-.92l8.65,3.75a.5.5,0,0,1-.2.95Z" style="fill:#263238"></path><path d="M290,185.09h0a.5.5,0,0,1-.46-.54l.36-5.46a.52.52,0,0,1,.53-.47.5.5,0,0,1,.47.54l-.37,5.46A.5.5,0,0,1,290,185.09Z" style="fill:#263238"></path><path d="M290.69,174.55a.51.51,0,0,1-.41-.2l-3.47-4.86-7-5.58a.48.48,0,0,1-.17-.27l-2.11-9.13a.5.5,0,0,1,.38-.6.51.51,0,0,1,.6.37l2.06,9,6.89,5.51a.43.43,0,0,1,.09.1l3.51,4.91a.51.51,0,0,1-.11.7A.52.52,0,0,1,290.69,174.55Z" style="fill:#263238"></path><path d="M280.2,355.37,269.09,377a7,7,0,0,1-6.23,3.81H225a7,7,0,0,1-6.24-3.81l-11.1-21.63Z" style="fill:#263238"></path><path d="M262.86,381.31H225a7.47,7.47,0,0,1-6.68-4.08L207.2,355.59a.5.5,0,0,1,.45-.72H280.2a.49.49,0,0,1,.42.24.48.48,0,0,1,0,.48l-11.1,21.64A7.48,7.48,0,0,1,262.86,381.31Zm-54.39-25.44,10.73,20.9a6.49,6.49,0,0,0,5.79,3.54h37.87a6.49,6.49,0,0,0,5.79-3.54l10.73-20.9Z" style="fill:#263238"></path><rect x="190.56" y="278.9" width="106.72" height="75.76" style="fill:#263238"></rect><path d="M297.28,355.16H190.56a.5.5,0,0,1-.5-.5V278.9a.5.5,0,0,1,.5-.5H297.28a.5.5,0,0,1,.5.5v75.76A.5.5,0,0,1,297.28,355.16Zm-106.22-1H296.78V279.4H191.06Z" style="fill:#263238"></path><rect x="204.27" y="278.9" width="29.23" height="75.76" style="fill:#fff"></rect><path d="M233.51,355.16H204.27a.5.5,0,0,1-.5-.5V278.9a.51.51,0,0,1,.5-.5h29.24a.51.51,0,0,1,.5.5v75.76A.5.5,0,0,1,233.51,355.16Zm-28.74-1H233V279.4H204.77Z" style="fill:#263238"></path><path d="M297.28,354.66l-7.81,9.94a9.53,9.53,0,0,1-7.63,3.83H206a9.5,9.5,0,0,1-7.63-3.83l-7.82-9.94Z" style="fill:#263238"></path><path d="M281.84,368.93H206a10.06,10.06,0,0,1-8-4L190.17,355a.51.51,0,0,1-.06-.53.5.5,0,0,1,.45-.28H297.28a.5.5,0,0,1,.4.81l-7.82,9.94A10.06,10.06,0,0,1,281.84,368.93Zm-90.25-13.77,7.18,9.13a9.06,9.06,0,0,0,7.24,3.64h75.83a9.08,9.08,0,0,0,7.23-3.63l7.19-9.14Z" style="fill:#263238"></path><path d="M233.45,364.6l-7.81-9.94h-21l7.82,9.94a9.51,9.51,0,0,0,7.63,3.83h21A9.53,9.53,0,0,1,233.45,364.6Z" style="fill:#fff"></path><path d="M241.08,368.93H220a10.06,10.06,0,0,1-8-4L204.2,355a.5.5,0,0,1,.39-.81h21a.49.49,0,0,1,.39.19l7.82,9.94h0a9.08,9.08,0,0,0,7.23,3.63.5.5,0,0,1,.5.5A.5.5,0,0,1,241.08,368.93Zm-35.46-13.77,7.18,9.13a9.08,9.08,0,0,0,7.24,3.64h16.69a10,10,0,0,1-3.67-3l-7.66-9.75Z" style="fill:#263238"></path><rect x="190.56" y="298.84" width="106.72" height="55.82" style="fill:#263238"></rect><path d="M297.28,355.16H190.56a.5.5,0,0,1-.5-.5V298.84a.5.5,0,0,1,.5-.5H297.28a.5.5,0,0,1,.5.5v55.82A.5.5,0,0,1,297.28,355.16Zm-106.22-1H296.78V299.34H191.06Z" style="fill:#263238"></path><path d="M296.65,311l-105,5.9a4.26,4.26,0,0,1-4.5-4h0a4.27,4.27,0,0,1,4-4.51l105-5.9a4.28,4.28,0,0,1,4.51,4h0A4.27,4.27,0,0,1,296.65,311Z" style="fill:#263238"></path><path d="M191.43,317.42a4.79,4.79,0,0,1-3.18-1.21,4.78,4.78,0,0,1,2.92-8.33l105-5.9a4.77,4.77,0,0,1,.54,9.53l-105,5.9Zm105-14.45h-.22l-105,5.9a3.76,3.76,0,0,0-3.55,4,3.76,3.76,0,0,0,4,3.55l105-5.9h0a3.77,3.77,0,0,0-.2-7.54Z" style="fill:#263238"></path><path d="M191.19,311.89l105-5.9a4.25,4.25,0,0,1,4.12,2.5,4.23,4.23,0,0,0-4.12-6l-105,5.9a4.26,4.26,0,0,0-3.64,6A4.28,4.28,0,0,1,191.19,311.89Z" style="fill:#fff"></path><path d="M187.55,314.91a.49.49,0,0,1-.45-.29,4.75,4.75,0,0,1,4.07-6.74l105-5.9a4.75,4.75,0,0,1,5,4.49,4.68,4.68,0,0,1-.42,2.22.51.51,0,0,1-.46.3.45.45,0,0,1-.45-.3,3.78,3.78,0,0,0-3.64-2.21l-105,5.91a3.75,3.75,0,0,0-3.21,2.23.49.49,0,0,1-.45.29ZM296.42,303h-.22l-105,5.9a3.78,3.78,0,0,0-3.55,4c0,.11,0,.23,0,.34a4.77,4.77,0,0,1,3.47-1.81h0l105-5.9a4.74,4.74,0,0,1,4,1.79,3.77,3.77,0,0,0-3.72-4.31Z" style="fill:#263238"></path><path d="M296.65,348.51l-105,5.9a4.26,4.26,0,0,1-4.5-4h0a4.27,4.27,0,0,1,4-4.51l105-5.9a4.27,4.27,0,0,1,4.51,4h0A4.27,4.27,0,0,1,296.65,348.51Z" style="fill:#fff"></path><path d="M191.43,354.92a4.77,4.77,0,0,1-.26-9.54l105-5.9a4.77,4.77,0,0,1,.54,9.53h0l-105,5.9Zm105-14.45h-.22l-105,5.9a3.77,3.77,0,0,0,.43,7.53l105-5.9a3.77,3.77,0,0,0-.2-7.54Zm.23,8h0Z" style="fill:#263238"></path><path d="M296.65,329.76l-105,5.9a4.26,4.26,0,0,1-4.5-4h0a4.27,4.27,0,0,1,4-4.51l105-5.9a4.27,4.27,0,0,1,4.51,4h0A4.27,4.27,0,0,1,296.65,329.76Z" style="fill:#263238"></path><path d="M191.43,336.17a4.79,4.79,0,0,1-3.18-1.21,4.78,4.78,0,0,1,2.92-8.33l105-5.9a4.77,4.77,0,0,1,.54,9.53h0l-105,5.9Zm105-14.45h-.22l-105,5.9a3.78,3.78,0,0,0-3.55,4,3.71,3.71,0,0,0,1.25,2.6,3.78,3.78,0,0,0,2.73,1l105-5.9a3.77,3.77,0,0,0-.2-7.54Zm.23,8h0Z" style="fill:#263238"></path><path d="M191.19,330.64l105-5.9a4.25,4.25,0,0,1,4.12,2.5,4.23,4.23,0,0,0-4.12-6l-105,5.9a4.26,4.26,0,0,0-3.64,6A4.28,4.28,0,0,1,191.19,330.64Z" style="fill:#fff"></path><path d="M187.55,333.66a.49.49,0,0,1-.45-.29,4.75,4.75,0,0,1,4.07-6.74l105-5.9a4.75,4.75,0,0,1,5,4.49,4.68,4.68,0,0,1-.42,2.22.51.51,0,0,1-.46.3h0a.49.49,0,0,1-.45-.3,3.78,3.78,0,0,0-3.64-2.21l-105,5.91a3.75,3.75,0,0,0-3.21,2.23.49.49,0,0,1-.45.29Zm108.87-11.94h-.22l-105,5.9a3.78,3.78,0,0,0-3.55,4c0,.11,0,.23,0,.34a4.77,4.77,0,0,1,3.47-1.81h0l105-5.9a4.74,4.74,0,0,1,4,1.79,3.77,3.77,0,0,0-3.72-4.31Z" style="fill:#263238"></path><path d="M191.19,349.39l105-5.9a4.25,4.25,0,0,1,4.12,2.5,4.23,4.23,0,0,0-4.12-6l-105,5.9a4.26,4.26,0,0,0-3.64,6A4.28,4.28,0,0,1,191.19,349.39Z" style="fill:#263238"></path><path d="M187.55,352.41a.49.49,0,0,1-.45-.29,4.75,4.75,0,0,1,4.07-6.74l105-5.9a4.75,4.75,0,0,1,5,4.49,4.68,4.68,0,0,1-.42,2.22.51.51,0,0,1-.46.3h0a.49.49,0,0,1-.45-.3A3.78,3.78,0,0,0,296.2,344l-105,5.91a3.75,3.75,0,0,0-3.21,2.23.49.49,0,0,1-.45.29Zm108.87-11.94h-.22l-105,5.9a3.78,3.78,0,0,0-3.55,4c0,.11,0,.23,0,.34a4.77,4.77,0,0,1,3.47-1.81h0l105-5.9a4.74,4.74,0,0,1,4,1.79,3.77,3.77,0,0,0-3.72-4.31Z" style="fill:#263238"></path><path d="M233.47,270.45h-.05a.5.5,0,0,1-.45-.55c0-.17,1.55-16.82,1.83-34.84a.49.49,0,0,1,.5-.49h0a.5.5,0,0,1,.5.5C235.52,253.13,234,269.83,234,270A.52.52,0,0,1,233.47,270.45Z" style="fill:#263238"></path><path d="M254.62,260.5a.5.5,0,0,1-.5-.5c-.13-20.17,1.2-51.74,2.26-77.11.1-2.47.21-4.89.3-7.23a21.32,21.32,0,0,1-5.62,2.05,23.27,23.27,0,0,1-16.17-2.59q1,14.69,1,35.88a.51.51,0,0,1-.5.5h0a.5.5,0,0,1-.5-.51c0-14.35-.33-26.56-1-36.5a23.6,23.6,0,0,1-9-10.29c-5.84-13-7.88-24.62-4.64-26.48,1.88-1.08,4.84,1.17,8.79,6.7,2.8,3.93,4.76,13.82,5.86,29.5a22.34,22.34,0,0,0,16,2.82,20.28,20.28,0,0,0,5.88-2.26c.41-9.89.74-18.38.89-24.41.24-10.3,5-18.55,8.77-18.55h0c1.69,0,4.52,1.65,4.52,12.35,0,14.94-4.83,26.06-13.23,31.2q-.16,3.81-.33,7.86c-1.06,25.36-2.39,56.92-2.26,77.06a.5.5,0,0,1-.5.51Zm11.77-128c-2.9,0-7.54,7.52-7.77,17.57-.14,5.91-.46,14.14-.86,23.76,7.74-5.12,12.18-15.77,12.18-30,0-7.08-1.32-11.32-3.53-11.35Zm-45.24,6a1.09,1.09,0,0,0-.5.11c-2.35,1.35-.85,12,5.06,25.2a22.55,22.55,0,0,0,8,9.45c-1.09-15-3-24.56-5.61-28.24C224.13,139.39,222.06,138.48,221.15,138.48Z" style="fill:#263238"></path><path d="M254.83,272.91a.5.5,0,0,1-.5-.48s-.07-2.52-.14-6.7a.5.5,0,0,1,.5-.5.51.51,0,0,1,.5.49c.07,4.16.14,6.68.14,6.68a.5.5,0,0,1-.49.51Z" style="fill:#263238"></path><path d="M294.32,240.83a94.93,94.93,0,0,1,12-33.49c7.1-12.2,17.39-23,23.29-35.76s8.29-27.19,8.3-41.19q0-3.9-.27-7.71" style="fill:#CFD8DC"></path><path d="M294.32,241.83h-.14a1,1,0,0,1-.85-1.13,95.24,95.24,0,0,1,12.13-33.85,177.22,177.22,0,0,1,10.14-15c4.78-6.59,9.73-13.4,13.11-20.7,5.37-11.59,8.21-25.69,8.21-40.77,0-2.55-.09-5.12-.27-7.64a1,1,0,1,1,2-.14c.19,2.57.28,5.18.28,7.78,0,15.37-2.91,29.76-8.39,41.61-3.47,7.48-8.47,14.37-13.31,21a178.22,178.22,0,0,0-10,14.81A93.37,93.37,0,0,0,295.31,241,1,1,0,0,1,294.32,241.83Z" style="fill:#263238"></path><path d="M293.28,271.19c.8-4.67.35-9.93.17-15.7,0-1-.05-2.09,0-3.13" style="fill:#CFD8DC"></path><path d="M293.28,272.19h-.17a1,1,0,0,1-.82-1.16c.64-3.68.46-7.84.28-12.24,0-1.07-.09-2.15-.12-3.26s-.05-2.12,0-3.17a1,1,0,0,1,1-1,1,1,0,0,1,1,1c0,1,0,2.07,0,3.1s.08,2.18.12,3.24a61.19,61.19,0,0,1-.31,12.66A1,1,0,0,1,293.28,272.19Z" style="fill:#263238"></path></g></svg>